<svg xmlns="http://www.w3.org/2000/svg" xmlns:xlink="http://www.w3.org/1999/xlink" contentStyleType="text/css" data-diagram-type="DESCRIPTION" height="1463px" preserveAspectRatio="none" style="width:1212px;height:1463px;background:#FFFFFF;" version="1.1" viewBox="0 0 1212 1463" width="1212px" zoomAndPan="magnify"><defs/><g><!--cluster SYS--><g class="cluster" data-entity="SYS" data-source-line="27" data-uid="ent0007" id="cluster_SYS"><rect fill="none" height="1271" rx="2.5" ry="2.5" style="stroke:#2B2B2B;stroke-width:1;" width="979" x="227" y="7"/><text fill="#000000" font-family="sans-serif" font-size="14" font-weight="bold" lengthAdjust="spacing" textLength="195.0566" x="618.9717" y="21.9951">LEON (Internal AI Agent)</text></g><!--cluster GOV--><g class="cluster" data-entity="GOV" data-source-line="33" data-uid="ent0010" id="cluster_GOV"><rect fill="none" height="533" rx="2.5" ry="2.5" style="stroke:#2B2B2B;stroke-width:1;" width="599.5" x="251" y="185"/><text fill="#000000" font-family="sans-serif" font-size="14" font-weight="bold" lengthAdjust="spacing" textLength="181.7334" x="459.8833" y="199.9951">Governance Workflows</text><text fill="#000000" font-family="sans-serif" font-size="14" font-weight="bold" lengthAdjust="spacing" textLength="277.5732" x="411.9634" y="216.292">(Copilot Studio + Power Automate)</text></g><!--cluster SPEC--><g class="cluster" data-entity="SPEC" data-source-line="43" data-uid="ent0018" id="cluster_SPEC"><rect fill="none" height="191" rx="2.5" ry="2.5" style="stroke:#2B2B2B;stroke-width:1;" width="612" x="272" y="1063"/><text fill="#000000" font-family="sans-serif" font-size="14" font-weight="bold" lengthAdjust="spacing" textLength="110.4619" x="522.769" y="1077.9951">SpecValidator</text><text fill="#000000" font-family="sans-serif" font-size="14" font-weight="bold" lengthAdjust="spacing" textLength="232.8252" x="461.5874" y="1094.292">(C#/.NET on Azure Functions)</text></g><!--entity UC_AUTH--><g class="entity" data-entity="UC_AUTH" data-source-line="30" data-uid="ent0008" id="entity_UC_AUTH"><ellipse cx="1092.5572" cy="880.9114" fill="#F7F7F7" rx="97.5572" ry="21.9114" style="stroke:#2B2B2B;stroke-width:0.5;"/><text fill="#000000" font-family="sans-serif" font-size="14" lengthAdjust="spacing" textLength="170.6592" x="1007.2276" y="885.5599">Authenticate / Authorize</text></g><!--entity UC_AUDIT--><g class="entity" data-entity="UC_AUDIT" data-source-line="31" data-uid="ent0009" id="entity_UC_AUDIT"><ellipse cx="1092.7415" cy="363.8483" fill="#F7F7F7" rx="77.2415" ry="17.8483" style="stroke:#2B2B2B;stroke-width:0.5;"/><text fill="#000000" font-family="sans-serif" font-size="14" lengthAdjust="spacing" textLength="124.127" x="1030.678" y="368.4967">Audit / Log Action</text></g><!--entity UC_WHO--><g class="entity" data-entity="UC_WHO" data-source-line="34" data-uid="ent0011" id="entity_UC_WHO"><ellipse cx="383.9063" cy="261.047" fill="#F7F7F7" rx="95.4063" ry="24.547" style="stroke:#2B2B2B;stroke-width:0.5;"/><text fill="#000000" font-family="sans-serif" font-size="14" lengthAdjust="spacing" textLength="139.7813" x="314.0157" y="259.7483">Lookup Responsible</text><text fill="#000000" font-family="sans-serif" font-size="14" lengthAdjust="spacing" textLength="94.7734" x="336.5196" y="276.0452">(Who-is-Who)</text></g><!--entity UC_GATE--><g class="entity" data-entity="UC_GATE" data-source-line="35" data-uid="ent0012" id="entity_UC_GATE"><ellipse cx="384.1691" cy="344.9611" fill="#F7F7F7" rx="88.6691" ry="24.4611" style="stroke:#2B2B2B;stroke-width:0.5;"/><text fill="#000000" font-family="sans-serif" font-size="14" lengthAdjust="spacing" textLength="130.1084" x="319.1149" y="343.794">Check Gate Status</text><text fill="#000000" font-family="sans-serif" font-size="14" lengthAdjust="spacing" textLength="85.0596" x="341.6393" y="360.0909">(Gate 1/2/3)</text></g><!--entity UC_DOC--><g class="entity" data-entity="UC_DOC" data-source-line="36" data-uid="ent0013" id="entity_UC_DOC"><ellipse cx="384.1468" cy="430.1294" fill="#F7F7F7" rx="113.6468" ry="25.1294" style="stroke:#2B2B2B;stroke-width:0.5;"/><text fill="#000000" font-family="sans-serif" font-size="14" lengthAdjust="spacing" textLength="177.8643" x="295.2147" y="429.7599">Manage Gate Documents</text><text fill="#000000" font-family="sans-serif" font-size="14" lengthAdjust="spacing" textLength="105.9639" x="331.1649" y="446.0568">(Upload/Route)</text></g><!--entity UC_RES--><g class="entity" data-entity="UC_RES" data-source-line="37" data-uid="ent0014" id="entity_UC_RES"><ellipse cx="384.1169" cy="515.8234" fill="#F7F7F7" rx="117.1169" ry="25.8234" style="stroke:#2B2B2B;stroke-width:0.5;"/><text fill="#000000" font-family="sans-serif" font-size="14" lengthAdjust="spacing" textLength="132.4941" x="317.8698" y="510.0364">Manage Resources</text><text fill="#000000" font-family="sans-serif" font-size="14" lengthAdjust="spacing" textLength="180.1748" x="294.0295" y="526.3333">(Workload + Assignment)</text></g><!--entity UC_NOTIFY--><g class="entity" data-entity="UC_NOTIFY" data-source-line="38" data-uid="ent0015" id="entity_UC_NOTIFY"><ellipse cx="748.5777" cy="501.2314" fill="#F7F7F7" rx="86.0777" ry="23.7314" style="stroke:#2B2B2B;stroke-width:0.5;"/><text fill="#000000" font-family="sans-serif" font-size="14" lengthAdjust="spacing" textLength="130.6143" x="683.2705" y="501.2141">Notify Responsible</text><text fill="#000000" font-family="sans-serif" font-size="14" lengthAdjust="spacing" textLength="49.7656" x="723.6948" y="517.511">(Email)</text></g><!--entity UC_DRAFT--><g class="entity" data-entity="UC_DRAFT" data-source-line="39" data-uid="ent0016" id="entity_UC_DRAFT"><ellipse cx="384.097" cy="596.0194" fill="#F7F7F7" rx="83.097" ry="19.0194" style="stroke:#2B2B2B;stroke-width:0.5;"/><text fill="#000000" font-family="sans-serif" font-size="14" lengthAdjust="spacing" textLength="137.9219" x="315.1361" y="600.6678">Prepare Email Draft</text></g><!--entity UC_UPD--><g class="entity" data-entity="UC_UPD" data-source-line="40" data-uid="ent0017" id="entity_UC_UPD"><ellipse cx="383.8042" cy="676.088" fill="#F7F7F7" rx="99.8042" ry="25.588" style="stroke:#2B2B2B;stroke-width:0.5;"/><text fill="#000000" font-family="sans-serif" font-size="14" lengthAdjust="spacing" textLength="139.6855" x="313.9614" y="673.2443">Update Responsible</text><text fill="#000000" font-family="sans-serif" font-size="14" lengthAdjust="spacing" textLength="127.9414" x="319.8335" y="689.5411">(where permitted)</text></g><!--entity UC_VALIDATE--><g class="entity" data-entity="UC_VALIDATE" data-source-line="44" data-uid="ent0019" id="entity_UC_VALIDATE"><ellipse cx="384.1612" cy="1134.2322" fill="#F7F7F7" rx="89.1612" ry="20.2322" style="stroke:#2B2B2B;stroke-width:0.5;"/><text fill="#000000" font-family="sans-serif" font-size="14" lengthAdjust="spacing" textLength="151.8398" x="308.2413" y="1138.8807">Validate Specification</text></g><!--entity UC_REPORT--><g class="entity" data-entity="UC_REPORT" data-source-line="45" data-uid="ent0020" id="entity_UC_REPORT"><ellipse cx="748.4087" cy="1140.7817" fill="#F7F7F7" rx="119.4087" ry="26.2817" style="stroke:#2B2B2B;stroke-width:0.5;"/><text fill="#000000" font-family="sans-serif" font-size="14" lengthAdjust="spacing" textLength="191.543" x="652.6373" y="1140.3441">Generate Validation Report</text><text fill="#000000" font-family="sans-serif" font-size="14" lengthAdjust="spacing" textLength="129.3291" x="683.7442" y="1156.641">(PASS/WARN/FAIL)</text></g><!--entity UC_REVIEW--><g class="entity" data-entity="UC_REVIEW" data-source-line="46" data-uid="ent0021" id="entity_UC_REVIEW"><ellipse cx="384.1193" cy="1212.1239" fill="#F7F7F7" rx="96.1193" ry="21.6239" style="stroke:#2B2B2B;stroke-width:0.5;"/><text fill="#000000" font-family="sans-serif" font-size="14" lengthAdjust="spacing" textLength="167.4668" x="300.3859" y="1216.7723">Request Human Review</text></g><!--entity A_Eng--><g class="entity" data-entity="A_Eng" data-source-line="19" data-uid="ent0002" id="entity_A_Eng"><ellipse cx="93.1753" cy="445" fill="#F1F1F1" rx="16" ry="16" style="stroke:#181818;stroke-width:0.5;"/><path d="M93.1753,465 C97.1753,465 100.1753,465 104.1753,461 C112.1753,461 120.1753,469 120.1753,477 L120.1753,481 C120.1753,485 116.1753,489 112.1753,489 L74.1753,489 C70.1753,489 66.1753,485 66.1753,481 L66.1753,477 C66.1753,469 74.1753,461 82.1753,461 C86.1753,465 89.1753,465 93.1753,465" fill="#F1F1F1" style="stroke:#181818;stroke-width:0.5;"/><text fill="#000000" font-family="sans-serif" font-size="14" lengthAdjust="spacing" textLength="62.3506" x="62" y="502.4951">Engineer</text></g><!--entity A_PM--><g class="entity" data-entity="A_PM" data-source-line="20" data-uid="ent0003" id="entity_A_PM"><ellipse cx="93.1348" cy="281" fill="#F1F1F1" rx="16" ry="16" style="stroke:#181818;stroke-width:0.5;"/><path d="M93.1348,301 C97.1348,301 100.1348,301 104.1348,297 C112.1348,297 120.1348,305 120.1348,313 L120.1348,317 C120.1348,321 116.1348,325 112.1348,325 L74.1348,325 C70.1348,325 66.1348,321 66.1348,317 L66.1348,313 C66.1348,305 74.1348,297 82.1348,297 C86.1348,301 89.1348,301 93.1348,301" fill="#F1F1F1" style="stroke:#181818;stroke-width:0.5;"/><text fill="#000000" font-family="sans-serif" font-size="14" lengthAdjust="spacing" textLength="114.2695" x="36" y="338.4951">Project Manager</text></g><!--entity A_Val--><g class="entity" data-entity="A_Val" data-source-line="21" data-uid="ent0004" id="entity_A_Val"><ellipse cx="92.873" cy="1398" fill="#F1F1F1" rx="16" ry="16" style="stroke:#181818;stroke-width:0.5;"/><path d="M92.873,1418 C96.873,1418 99.873,1418 103.873,1414 C111.873,1414 119.873,1422 119.873,1430 L119.873,1434 C119.873,1438 115.873,1442 111.873,1442 L73.873,1442 C69.873,1442 65.873,1438 65.873,1434 L65.873,1430 C65.873,1422 73.873,1414 81.873,1414 C85.873,1418 88.873,1418 92.873,1418" fill="#F1F1F1" style="stroke:#181818;stroke-width:0.5;"/><text fill="#000000" font-family="sans-serif" font-size="14" lengthAdjust="spacing" textLength="101.7461" x="42" y="1455.4951">Spec Validator</text></g><!--entity A_Admin--><g class="entity" data-entity="A_Admin" data-source-line="22" data-uid="ent0005" id="entity_A_Admin"><ellipse cx="93" cy="950" fill="#F1F1F1" rx="16" ry="16" style="stroke:#181818;stroke-width:0.5;"/><path d="M93,970 C97,970 100,970 104,966 C112,966 120,974 120,982 L120,986 C120,990 116,994 112,994 L74,994 C70,994 66,990 66,986 L66,982 C66,974 74,966 82,966 C86,970 89,970 93,970" fill="#F1F1F1" style="stroke:#181818;stroke-width:0.5;"/><text fill="#000000" font-family="sans-serif" font-size="14" lengthAdjust="spacing" textLength="44.8643" x="70.5679" y="1007.4951">Admin</text></g><!--entity A_Enterprise--><g class="entity" data-entity="A_Enterprise" data-source-line="25" data-uid="ent0006" id="entity_A_Enterprise"><ellipse cx="92.8882" cy="602.5" fill="#F1F1F1" rx="16" ry="16" style="stroke:#181818;stroke-width:0.5;"/><path d="M92.8882,622.5 C96.8882,622.5 99.8882,622.5 103.8882,618.5 C111.8882,618.5 119.8882,626.5 119.8882,634.5 L119.8882,638.5 C119.8882,642.5 115.8882,646.5 111.8882,646.5 L73.8882,646.5 C69.8882,646.5 65.8882,642.5 65.8882,638.5 L65.8882,634.5 C65.8882,626.5 73.8882,618.5 81.8882,618.5 C85.8882,622.5 88.8882,622.5 92.8882,622.5" fill="#F1F1F1" style="stroke:#181818;stroke-width:0.5;"/><text fill="#000000" font-family="sans-serif" font-size="14" lengthAdjust="spacing" textLength="135.9668" x="6" y="659.9951">Enterprise Systems</text><text fill="#000000" font-family="sans-serif" font-size="14" lengthAdjust="spacing" textLength="173.7764" x="6" y="676.292">([SharePoint]/Dataverse/</text><text fill="#000000" font-family="sans-serif" font-size="14" lengthAdjust="spacing" textLength="146.6445" x="6" y="692.5889">Email/Rules Storage)</text></g><!--link UC_WHO to UC_AUTH--><g class="link" data-entity-1="UC_WHO" data-entity-2="UC_AUTH" data-source-line="52" data-uid="lnk22" id="link_UC_WHO_UC_AUTH"><path d="M461.73,275.27 C476.78,281.45 490.98,290.31 501,303 C573.92,395.32 448.82,481.82 531,566 C587.57,623.95 822.19,574.95 892,616 C992.52,675.11 1056.3972,801.0398 1079.7272,853.3798" fill="none" id="UC_WHO-to-UC_AUTH" style="stroke:#181818;stroke-width:1;stroke-dasharray:7,7;"/><polygon fill="#181818" points="1082.17,858.86,1082.1594,849.0111,1080.1344,854.2931,1074.8524,852.2682,1082.17,858.86" style="stroke:#181818;stroke-width:1;"/><text fill="#000000" font-family="sans-serif" font-size="13" lengthAdjust="spacing" textLength="63.0068" x="717" y="592.0669">&#171;include&#187;</text></g><!--link UC_GATE to UC_AUTH--><g class="link" data-entity-1="UC_GATE" data-entity-2="UC_AUTH" data-source-line="53" data-uid="lnk23" id="link_UC_GATE_UC_AUTH"><path d="M458.39,358.35 C474.55,364.56 490.07,373.66 501,387 C557.69,456.18 479.01,513.22 531,586 C559.54,625.95 583.83,617.74 629,637 C742.51,685.4 787.18,660.89 892,726 C896.27,728.65 896.22,730.68 900,734 C954.67,781.95 1018.321,828.9378 1056.811,856.4878" fill="none" id="UC_GATE-to-UC_AUTH" style="stroke:#181818;stroke-width:1;stroke-dasharray:7,7;"/><polygon fill="#181818" points="1061.69,859.98,1056.6997,851.489,1057.6242,857.0698,1052.0434,857.9943,1061.69,859.98" style="stroke:#181818;stroke-width:1;"/><text fill="#000000" font-family="sans-serif" font-size="13" lengthAdjust="spacing" textLength="63.0068" x="717" y="633.0669">&#171;include&#187;</text></g><!--link UC_DOC to UC_AUTH--><g class="link" data-entity-1="UC_DOC" data-entity-2="UC_AUTH" data-source-line="54" data-uid="lnk24" id="link_UC_DOC_UC_AUTH"><path d="M467.35,447.12 C480.18,453.09 492.12,461.14 501,472 C558.2,541.9 497.26,589.22 531,673 C559.1,742.78 564.94,771.57 629,811 C689.17,848.03 875.2254,866.6303 992.0754,875.0203" fill="none" id="UC_DOC-to-UC_AUTH" style="stroke:#181818;stroke-width:1;stroke-dasharray:7,7;"/><polygon fill="#181818" points="998.06,875.45,989.3696,870.8157,993.0728,875.0919,988.7966,878.7952,998.06,875.45" style="stroke:#181818;stroke-width:1;"/><text fill="#000000" font-family="sans-serif" font-size="13" lengthAdjust="spacing" textLength="63.0068" x="717" y="807.0669">&#171;include&#187;</text></g><!--link UC_RES to UC_AUTH--><g class="link" data-entity-1="UC_RES" data-entity-2="UC_AUTH" data-source-line="55" data-uid="lnk25" id="link_UC_RES_UC_AUTH"><path d="M468.66,533.95 C481.11,540.02 492.57,548.14 501,559 C579.88,660.68 458.61,740.59 531,847 C558.62,887.6 581.31,886.33 629,898 C763.83,930.98 921.3889,912.7388 1013.4389,896.7188" fill="none" id="UC_RES-to-UC_AUTH" style="stroke:#181818;stroke-width:1;stroke-dasharray:7,7;"/><polygon fill="#181818" points="1019.35,895.69,1009.7974,893.2924,1014.424,896.5473,1011.1691,901.1739,1019.35,895.69" style="stroke:#181818;stroke-width:1;"/><text fill="#000000" font-family="sans-serif" font-size="13" lengthAdjust="spacing" textLength="63.0068" x="717" y="894.0669">&#171;include&#187;</text></g><!--link UC_NOTIFY to UC_AUTH--><g class="link" data-entity-1="UC_NOTIFY" data-entity-2="UC_AUTH" data-source-line="56" data-uid="lnk26" id="link_UC_NOTIFY_UC_AUTH"><path d="M832.26,506.39 C877.8,513.77 931.68,530.52 965,568 C1044.64,657.57 1076.6901,797.868 1086.7901,853.068" fill="none" id="UC_NOTIFY-to-UC_AUTH" style="stroke:#181818;stroke-width:1;stroke-dasharray:7,7;"/><polygon fill="#181818" points="1087.87,858.97,1090.1848,849.397,1086.9701,854.0517,1082.3155,850.8369,1087.87,858.97" style="stroke:#181818;stroke-width:1;"/><text fill="#000000" font-family="sans-serif" font-size="13" lengthAdjust="spacing" textLength="63.0068" x="901" y="521.0669">&#171;include&#187;</text></g><!--link UC_UPD to UC_AUTH--><g class="link" data-entity-1="UC_UPD" data-entity-2="UC_AUTH" data-source-line="57" data-uid="lnk27" id="link_UC_UPD_UC_AUTH"><path d="M393.76,701.48 C412.12,751.66 458.99,864.47 531,934 C566.32,968.1 581.31,973.33 629,985 C742.54,1012.78 778.47,1012.82 892,985 C957.25,969.01 1019.9235,930.9413 1057.2735,905.4613" fill="none" id="UC_UPD-to-UC_AUTH" style="stroke:#181818;stroke-width:1;stroke-dasharray:7,7;"/><polygon fill="#181818" points="1062.23,902.08,1052.5411,903.8476,1058.0996,904.8977,1057.0495,910.4563,1062.23,902.08" style="stroke:#181818;stroke-width:1;"/><text fill="#000000" font-family="sans-serif" font-size="13" lengthAdjust="spacing" textLength="63.0068" x="717" y="981.0669">&#171;include&#187;</text></g><!--link UC_VALIDATE to UC_AUTH--><g class="link" data-entity-1="UC_VALIDATE" data-entity-2="UC_AUTH" data-source-line="58" data-uid="lnk28" id="link_UC_VALIDATE_UC_AUTH"><path d="M444.66,1148.7 C463.43,1154.71 483.75,1162.72 501,1173 C516.67,1182.34 514.07,1194.23 531,1201 C592.17,1225.47 786.06,1260.89 892,1202 C1011.57,1135.53 1067.0974,970.1792 1084.1774,908.9692" fill="none" id="UC_VALIDATE-to-UC_AUTH" style="stroke:#181818;stroke-width:1;stroke-dasharray:7,7;"/><polygon fill="#181818" points="1085.79,903.19,1079.5182,910.7837,1084.4461,908.006,1087.2239,912.9339,1085.79,903.19" style="stroke:#181818;stroke-width:1;"/><text fill="#000000" font-family="sans-serif" font-size="13" lengthAdjust="spacing" textLength="63.0068" x="717" y="1198.0669">&#171;include&#187;</text></g><!--link UC_WHO to UC_AUDIT--><g class="link" data-entity-1="UC_WHO" data-entity-2="UC_AUDIT" data-source-line="60" data-uid="lnk29" id="link_UC_WHO_UC_AUDIT"><path d="M436.17,240.47 C464.1,229.41 499.34,215.67 531,204 C682.21,148.27 735.46,131.7 892,170 C987.73,193.42 1054.6393,297.4801 1079.0593,340.9101" fill="none" id="UC_WHO-to-UC_AUDIT" style="stroke:#181818;stroke-width:1;stroke-dasharray:7,7;"/><polygon fill="#181818" points="1082,346.14,1081.0756,336.3346,1079.5494,341.7817,1074.1023,340.2556,1082,346.14" style="stroke:#181818;stroke-width:1;"/><text fill="#000000" font-family="sans-serif" font-size="13" lengthAdjust="spacing" textLength="63.0068" x="717" y="146.0669">&#171;include&#187;</text></g><!--link UC_GATE to UC_AUDIT--><g class="link" data-entity-1="UC_GATE" data-entity-2="UC_AUDIT" data-source-line="61" data-uid="lnk30" id="link_UC_GATE_UC_AUDIT"><path d="M455.27,330.36 C471.89,324.17 488.41,315.4 501,303 C527.76,276.65 501.91,247.76 531,224 C585.78,179.26 780.25,195.9 892,208 C925.02,211.58 936.27,207.33 965,224 C1018.26,254.91 1058.3008,310.8667 1077.5208,341.0967" fill="none" id="UC_GATE-to-UC_AUDIT" style="stroke:#181818;stroke-width:1;stroke-dasharray:7,7;"/><polygon fill="#181818" points="1080.74,346.16,1079.2867,336.419,1078.0573,341.9406,1072.5357,340.7112,1080.74,346.16" style="stroke:#181818;stroke-width:1;"/><text fill="#000000" font-family="sans-serif" font-size="13" lengthAdjust="spacing" textLength="63.0068" x="717" y="191.0669">&#171;include&#187;</text></g><!--link UC_DOC to UC_AUDIT--><g class="link" data-entity-1="UC_DOC" data-entity-2="UC_AUDIT" data-source-line="62" data-uid="lnk31" id="link_UC_DOC_UC_AUDIT"><path d="M462.11,411.8 C476.33,405.73 490.1,397.67 501,387 C526.95,361.59 502.73,333.79 531,311 C565.36,283.31 585.01,298.57 629,295 C778.01,282.92 822.45,265.93 965,311 C997.24,321.19 1027.1741,333.8933 1052.3041,345.3933" fill="none" id="UC_DOC-to-UC_AUDIT" style="stroke:#181818;stroke-width:1;stroke-dasharray:7,7;"/><polygon fill="#181818" points="1057.76,347.89,1051.2407,340.5077,1053.2134,345.8094,1047.9117,347.7822,1057.76,347.89" style="stroke:#181818;stroke-width:1;"/><text fill="#000000" font-family="sans-serif" font-size="13" lengthAdjust="spacing" textLength="63.0068" x="717" y="278.0669">&#171;include&#187;</text></g><!--link UC_RES to UC_AUDIT--><g class="link" data-entity-1="UC_RES" data-entity-2="UC_AUDIT" data-source-line="63" data-uid="lnk32" id="link_UC_RES_UC_AUDIT"><path d="M462.95,496.63 C476.85,490.49 490.3,482.46 501,472 C526.38,447.19 503.27,420.14 531,398 C604.42,339.38 879.0426,349.3713 1013.2226,358.0813" fill="none" id="UC_RES-to-UC_AUDIT" style="stroke:#181818;stroke-width:1;stroke-dasharray:7,7;"/><polygon fill="#181818" points="1019.21,358.47,1010.488,353.8954,1014.2205,358.1461,1009.9698,361.8786,1019.21,358.47" style="stroke:#181818;stroke-width:1;"/><text fill="#000000" font-family="sans-serif" font-size="13" lengthAdjust="spacing" textLength="63.0068" x="717" y="348.0669">&#171;include&#187;</text></g><!--link UC_NOTIFY to UC_AUDIT--><g class="link" data-entity-1="UC_NOTIFY" data-entity-2="UC_AUDIT" data-source-line="64" data-uid="lnk33" id="link_UC_NOTIFY_UC_AUDIT"><path d="M825.74,490.47 C847.51,486.28 871.02,480.59 892,473 C958.44,448.97 1024.4843,408.5428 1061.2243,384.4228" fill="none" id="UC_NOTIFY-to-UC_AUDIT" style="stroke:#181818;stroke-width:1;stroke-dasharray:7,7;"/><polygon fill="#181818" points="1066.24,381.13,1056.5212,382.7254,1062.0602,383.874,1060.9117,389.413,1066.24,381.13" style="stroke:#181818;stroke-width:1;"/><text fill="#000000" font-family="sans-serif" font-size="13" lengthAdjust="spacing" textLength="63.0068" x="901" y="439.0669">&#171;include&#187;</text></g><!--link UC_UPD to UC_AUDIT--><g class="link" data-entity-1="UC_UPD" data-entity-2="UC_AUDIT" data-source-line="65" data-uid="lnk34" id="link_UC_UPD_UC_AUDIT"><path d="M460.75,659.51 C475.85,653.12 490.32,644.26 501,632 C540.24,586.96 492.53,546.69 531,501 C561.41,464.88 583.9,473.97 629,460 C767.85,416.98 930.2113,388.432 1020.6213,374.372" fill="none" id="UC_UPD-to-UC_AUDIT" style="stroke:#181818;stroke-width:1;stroke-dasharray:7,7;"/><polygon fill="#181818" points="1026.55,373.45,1017.0422,370.8805,1021.6094,374.2183,1018.2716,378.7855,1026.55,373.45" style="stroke:#181818;stroke-width:1;"/><text fill="#000000" font-family="sans-serif" font-size="13" lengthAdjust="spacing" textLength="63.0068" x="717" y="393.0669">&#171;include&#187;</text></g><!--link UC_VALIDATE to UC_AUDIT--><g class="link" data-entity-1="UC_VALIDATE" data-entity-2="UC_AUDIT" data-source-line="66" data-uid="lnk35" id="link_UC_VALIDATE_UC_AUDIT"><path d="M392.99,1113.7 C417.81,1053.46 499.77,874.67 629,790 C728.89,724.56 796.34,806.49 892,735 C1017.95,640.88 1071.6778,449.0086 1086.0978,388.0986" fill="none" id="UC_VALIDATE-to-UC_AUDIT" style="stroke:#181818;stroke-width:1;stroke-dasharray:7,7;"/><polygon fill="#181818" points="1087.48,382.26,1081.5142,390.0964,1086.3281,387.1255,1089.299,391.9394,1087.48,382.26" style="stroke:#181818;stroke-width:1;"/><text fill="#000000" font-family="sans-serif" font-size="13" lengthAdjust="spacing" textLength="63.0068" x="717" y="731.0669">&#171;include&#187;</text></g><!--link UC_REPORT to UC_AUDIT--><g class="link" data-entity-1="UC_REPORT" data-entity-2="UC_AUDIT" data-source-line="67" data-uid="lnk36" id="link_UC_REPORT_UC_AUDIT"><path d="M858.6,1130.63 C870.94,1125.76 882.47,1119.09 892,1110 C948.08,1056.5 1064.4306,496.8089 1086.6406,387.9489" fill="none" id="UC_REPORT-to-UC_AUDIT" style="stroke:#181818;stroke-width:1;stroke-dasharray:7,7;"/><polygon fill="#181818" points="1087.84,382.07,1082.1216,390.0887,1086.8405,386.9691,1089.9601,391.688,1087.84,382.07" style="stroke:#181818;stroke-width:1;"/><text fill="#000000" font-family="sans-serif" font-size="13" lengthAdjust="spacing" textLength="63.0068" x="901" y="919.0669">&#171;include&#187;</text></g><!--link UC_VALIDATE to UC_REPORT--><g class="link" data-entity-1="UC_VALIDATE" data-entity-2="UC_REPORT" data-source-line="69" data-uid="lnk37" id="link_UC_VALIDATE_UC_REPORT"><path d="M472.62,1136.59 C491.85,1137.11 512.11,1137.61 531,1138 C562.76,1138.66 591.1406,1139.1151 622.9506,1139.5651" fill="none" id="UC_VALIDATE-to-UC_REPORT" style="stroke:#181818;stroke-width:1;stroke-dasharray:7,7;"/><polygon fill="#181818" points="628.95,1139.65,620.0075,1135.5231,623.9505,1139.5793,619.8943,1143.5223,628.95,1139.65" style="stroke:#181818;stroke-width:1;"/><text fill="#000000" font-family="sans-serif" font-size="13" lengthAdjust="spacing" textLength="63.0068" x="533.5" y="1134.0669">&#171;include&#187;</text></g><!--reverse link UC_DRAFT to UC_NOTIFY--><g class="link" data-entity-1="UC_DRAFT" data-entity-2="UC_NOTIFY" data-source-line="74" data-uid="lnk38" id="link_UC_DRAFT_UC_NOTIFY"><path d="M445.1948,580.1922 C472.6548,573.0122 500.67,565.74 531,558 C561.19,550.3 569.5,551 599,541 C612.76,536.33 615.19,532.52 629,528 C644.64,522.88 661.75,518.37 677.98,514.58" fill="none" id="UC_DRAFT-backto-UC_NOTIFY" style="stroke:#181818;stroke-width:1;stroke-dasharray:7,7;"/><polygon fill="#181818" points="439.39,581.71,449.1091,583.3032,444.2274,580.4452,447.0854,575.5634,439.39,581.71" style="stroke:#181818;stroke-width:1;"/><text fill="#000000" font-family="sans-serif" font-size="13" lengthAdjust="spacing" textLength="61.1851" x="534.822" y="522.0669">&#171;extend&#187;</text><text fill="#000000" font-family="sans-serif" font-size="13" lengthAdjust="spacing" textLength="62.8291" x="534" y="537.1997">(optional)</text></g><!--reverse link UC_REVIEW to UC_REPORT--><g class="link" data-entity-1="UC_REVIEW" data-entity-2="UC_REPORT" data-source-line="75" data-uid="lnk39" id="link_UC_REVIEW_UC_REPORT"><path d="M475.5666,1201.3816 C515.1166,1196.0716 556.75,1189.45 599,1180 C612.59,1176.96 615.58,1174.71 629,1171 C641.58,1167.52 654.95,1163.98 668.02,1160.62" fill="none" id="UC_REVIEW-backto-UC_REPORT" style="stroke:#181818;stroke-width:1;stroke-dasharray:7,7;"/><polygon fill="#181818" points="469.62,1202.18,479.0722,1204.9468,474.5755,1201.5147,478.0077,1197.018,469.62,1202.18" style="stroke:#181818;stroke-width:1;"/><text fill="#000000" font-family="sans-serif" font-size="13" lengthAdjust="spacing" textLength="61.1851" x="534.4089" y="1161.0669">&#171;extend&#187;</text><text fill="#000000" font-family="sans-serif" font-size="13" lengthAdjust="spacing" textLength="66.0029" x="532" y="1176.1997">(if critical)</text></g><!--link A_Eng to UC_WHO--><g class="link" data-entity-1="A_Eng" data-entity-2="UC_WHO" data-source-line="82" data-uid="lnk40" id="link_A_Eng_UC_WHO"><path d="M124.05,430.47 C140.84,409.76 161.95,383.22 180,359 C198.12,334.68 194.08,320.29 219,303 C241.82,287.17 270.14,277.3 296.79,271.15" fill="none" id="A_Eng-UC_WHO" style="stroke:#181818;stroke-width:1;"/></g><!--link A_Eng to UC_GATE--><g class="link" data-entity-1="A_Eng" data-entity-2="UC_GATE" data-source-line="83" data-uid="lnk41" id="link_A_Eng_UC_GATE"><path d="M124.29,443.69 C148.69,425.91 184.5,402 219,387 C247.71,374.52 280.91,365.16 309.9,358.48" fill="none" id="A_Eng-UC_GATE" style="stroke:#181818;stroke-width:1;"/></g><!--link A_Eng to UC_VALIDATE--><g class="link" data-entity-1="A_Eng" data-entity-2="UC_VALIDATE" data-source-line="84" data-uid="lnk42" id="link_A_Eng_UC_VALIDATE"><path d="M124.27,495.3 C142.86,514.24 165.75,540.63 180,568 C211.8,629.1 197.66,652.5 219,718 C269.62,873.38 347.88,1054.5 374.1,1113.97" fill="none" id="A_Eng-UC_VALIDATE" style="stroke:#181818;stroke-width:1;"/></g><!--link A_PM to UC_RES--><g class="link" data-entity-1="A_PM" data-entity-2="UC_RES" data-source-line="86" data-uid="lnk43" id="link_A_PM_UC_RES"><path d="M126.45,341.74 C143,361.99 163.13,387.41 180,411 C198.71,437.18 193.04,452.99 219,472 C238.15,486.02 261.47,495.57 284.45,502.08" fill="none" id="A_PM-UC_RES" style="stroke:#181818;stroke-width:1;"/></g><!--link A_PM to UC_DOC--><g class="link" data-entity-1="A_PM" data-entity-2="UC_DOC" data-source-line="87" data-uid="lnk44" id="link_A_PM_UC_DOC"><path d="M143.12,341.61 C165.29,357.52 192.43,375 219,387 C243.82,398.2 272.11,406.92 298.13,413.49" fill="none" id="A_PM-UC_DOC" style="stroke:#181818;stroke-width:1;"/></g><!--link A_PM to UC_NOTIFY--><g class="link" data-entity-1="A_PM" data-entity-2="UC_NOTIFY" data-source-line="88" data-uid="lnk45" id="link_A_PM_UC_NOTIFY"><path d="M137.51,264.37 C160.14,246.86 189.24,228.07 219,219 C338.89,182.46 394.28,153.28 501,219 C608.64,285.29 529.76,394.7 629,473 C640.37,481.97 654.14,488.14 668.21,492.38" fill="none" id="A_PM-UC_NOTIFY" style="stroke:#181818;stroke-width:1;"/></g><!--link A_PM to UC_GATE--><g class="link" data-entity-1="A_PM" data-entity-2="UC_GATE" data-source-line="89" data-uid="lnk46" id="link_A_PM_UC_GATE"><path d="M150.12,291.92 C169.06,288.69 190.37,285.6 210,284 C219.31,283.24 211.92,296.9 219,303 C241.04,322 270.56,332.59 298.48,338.42" fill="none" id="A_PM-UC_GATE" style="stroke:#181818;stroke-width:1;"/></g><!--link A_PM to UC_UPD--><g class="link" data-entity-1="A_PM" data-entity-2="UC_UPD" data-source-line="90" data-uid="lnk47" id="link_A_PM_UC_UPD"><path d="M132.78,341.83 C149.84,361.1 168.57,385.65 180,411 C185.12,422.37 210.58,622.81 219,632 C236.82,651.45 262.23,662.68 287.74,669.06" fill="none" id="A_PM-UC_UPD" style="stroke:#181818;stroke-width:1;"/></g><!--link A_Val to UC_VALIDATE--><g class="link" data-entity-1="A_Val" data-entity-2="UC_VALIDATE" data-source-line="92" data-uid="lnk48" id="link_A_Val_UC_VALIDATE"><path d="M102.67,1381.33 C117.06,1326.37 151.27,1226.43 219,1173 C241.63,1155.15 271.13,1145.26 298.86,1139.85" fill="none" id="A_Val-UC_VALIDATE" style="stroke:#181818;stroke-width:1;"/></g><!--link A_Val to UC_REVIEW--><g class="link" data-entity-1="A_Val" data-entity-2="UC_REVIEW" data-source-line="93" data-uid="lnk49" id="link_A_Val_UC_REVIEW"><path d="M144.19,1428.68 C165.7,1430.15 190.54,1428.71 211,1419 C294.16,1379.54 351.19,1278.23 373.05,1233.63" fill="none" id="A_Val-UC_REVIEW" style="stroke:#181818;stroke-width:1;"/></g><!--link A_Admin to UC_UPD--><g class="link" data-entity-1="A_Admin" data-entity-2="UC_UPD" data-source-line="95" data-uid="lnk50" id="link_A_Admin_UC_UPD"><path d="M120.67,944.68 C176.56,887.44 305.24,755.65 358.86,700.73" fill="none" id="A_Admin-UC_UPD" style="stroke:#181818;stroke-width:1;"/></g><!--link A_Admin to UC_AUTH--><g class="link" data-entity-1="A_Admin" data-entity-2="UC_AUTH" data-source-line="96" data-uid="lnk51" id="link_A_Admin_UC_AUTH"><path d="M95.2,1010.53 C99.79,1082.73 121.16,1237.22 219,1305 C322.03,1376.37 375.9,1312.63 501,1305 C711.57,1292.16 833.02,1369.57 965,1205 C1042.26,1108.66 1076.81,959.49 1087.58,903.37" fill="none" id="A_Admin-UC_AUTH" style="stroke:#181818;stroke-width:1;"/></g><!--link A_Enterprise to UC_WHO--><g class="link" data-entity-1="A_Enterprise" data-entity-2="UC_WHO" data-source-line="99" data-uid="lnk52" id="link_A_Enterprise_UC_WHO"><path d="M142.06,585.98 C156.29,567.12 170.56,545.16 180,523 C189.73,500.16 202.12,321.2 219,303 C237.49,283.07 264.03,272.05 290.38,266.12" fill="none" id="A_Enterprise-UC_WHO" style="stroke:#181818;stroke-width:1;"/></g><!--link A_Enterprise to UC_GATE--><g class="link" data-entity-1="A_Enterprise" data-entity-2="UC_GATE" data-source-line="100" data-uid="lnk53" id="link_A_Enterprise_UC_GATE"><path d="M140.27,585.96 C154.55,566.92 169.32,544.86 180,523 C186.9,508.88 207.73,397.96 219,387 C239.87,366.72 269.12,355.85 297.15,350.13" fill="none" id="A_Enterprise-UC_GATE" style="stroke:#181818;stroke-width:1;"/></g><!--link A_Enterprise to UC_DOC--><g class="link" data-entity-1="A_Enterprise" data-entity-2="UC_DOC" data-source-line="101" data-uid="lnk54" id="link_A_Enterprise_UC_DOC"><path d="M170.07,585.95 C185.99,570.87 200.97,553.3 211,534 C223.81,509.35 200.59,492.81 219,472 C233.9,455.16 254.54,444.63 276.15,438.15" fill="none" id="A_Enterprise-UC_DOC" style="stroke:#181818;stroke-width:1;"/></g><!--link A_Enterprise to UC_RES--><g class="link" data-entity-1="A_Enterprise" data-entity-2="UC_RES" data-source-line="102" data-uid="lnk55" id="link_A_Enterprise_UC_RES"><path d="M180.09,635.41 C191.75,631.23 202.58,625.04 211,616 C228.43,597.28 202,578.12 219,559 C233.57,542.61 253.55,532.12 274.56,525.48" fill="none" id="A_Enterprise-UC_RES" style="stroke:#181818;stroke-width:1;"/></g><!--link A_Enterprise to UC_NOTIFY--><g class="link" data-entity-1="A_Enterprise" data-entity-2="UC_NOTIFY" data-source-line="103" data-uid="lnk56" id="link_A_Enterprise_UC_NOTIFY"><path d="M114.58,696.01 C134.32,750.95 163.5,838.19 180,916 C195.69,989.96 162.56,1203.69 219,1254 C282.04,1310.18 538.07,1312.47 599,1254 C657.26,1198.1 577.36,590.06 629,528 C638.04,517.13 650.47,510.11 663.89,505.65" fill="none" id="A_Enterprise-UC_NOTIFY" style="stroke:#181818;stroke-width:1;"/></g><!--link A_Enterprise to UC_VALIDATE--><g class="link" data-entity-1="A_Enterprise" data-entity-2="UC_VALIDATE" data-source-line="104" data-uid="lnk57" id="link_A_Enterprise_UC_VALIDATE"><path d="M126.31,696.12 C190.24,805.17 330.22,1043.97 371.39,1114.2" fill="none" id="A_Enterprise-UC_VALIDATE" style="stroke:#181818;stroke-width:1;"/></g><!--SRC=[ZLPTR-8u57tFhxZgF1Iqej7EFgmqwbJAG6YH6404sXtjh4RUv1Ay97RMTifqLltlSvsl9b3AWjHY-vph-t5yxSkF9pxE9Kpz-Gm6iDO8GqP_Hfp5YgNG6yeqOw61nTY7HrIQIz5tBazQId1Zm4XGFDuQYBZ2q135qJikCcOjwYsBv9wB63OiqTXQeNrsBCR0F2K8biX4dBG1v8TKvJBRevPfUp7N65hF_tC0FaaLeHhAH2fuz_wJ_TfPiXyhcOkeMXd_Rh_ESyjAi-r9Ey-ESpauzQ5CtkKf4wMh6dfA9gZxRp4A95pu8kO2KLq0q-1zes6zib3o7_8AFZD1sQa1Yy_rUf1X2FSiuH6ZSRLCuthTYr8kgkdYDmK0yyoMXIKVG0hAPXmhZ9d12FIJDbYbsXPoXvXH7Kirw9GboOl71bMcEEKyA4Zwg-Zz6MoPmeNamlpbZfXXLZFeVXL-odZYBdDA1mJ4fr3wJQor8STvoVz58SdUn2wIe-1Dm8jHc98LV0ceGbIYInWggVKWp8snekffwq3KfwLQ4HTURhR4v25522xOeLJy1nQMriDltdfrryL7t11mAcFm2ls-84UJbTssqYfStCf7wvy84HwascqIkRTv6CgC9z9Gg6HBmY-ma7jKTckPaXTb4BVp-q9chQsdKkxo39QeCoaq_pj1ClQmbGEk1_IlNploS3Vl4eTR37TmQoCC33EvTQ8O_Ug-TtzhUBVUokyIIrcLp94CyvGoPSdhB94iSfSohzqb-cW-V9LD_ifSXMY9DWsMIa5xMlDOf4tLoCBI3xeMPjBmpTD1n8LQ6ivilfgCltHf2uLqOX4A98mKsvZ6oQKtNdNHwoooyNKtsM-H36IeKcv8-irswyM8sC-TCjj3rfmnMzztxjNCNz7f0Uz7JcR6kIYKeYjzBlpXOMqhFXM8ZF6DbMDBMlVUT38wgiuj2bIMKv69G55aKXboOk45WVlWBMVks9jCMobUp9S72LZYlpbgKtMd9JvotB_WxoV-Gnto6wtAdhR9R3XTZtpeaPqY6K_KCscR_ZbgALgukhgfZnnyWEjhBi8aZ_3cfeHOVPx3a0ZFGKXbvo2bgCwXI0ld87NXti2z4ZxraVFndm1r4d02qyd02SnX2ax0EZauWJbEmac_h3ZVWhrkiE8TGS_8rVzZvSz6q9FLVUU6Kb1pBtx_7yaMlGIkhwvQ-R8-u7U38hgveLDOc-xN0ThJL5DQRhSeV0EXulP28jRP5uLNtBTCQndoeWFGkwAubkakvwaryGQzU4h0O51V6krnSHcq9veUvDW7HZLfEtPhQA-0rh3gpQsPocepjktKALuaXxkq9wicv5Hlb1QtErFSrOxJVZKSH7SmtGHvC5_6SJHTHdiqtOHvj597ynC0]--></g></svg>